<svg id="Layer_1" data-name="Layer 1" xmlns="http://www.w3.org/2000/svg" viewBox="0 0 100 100"><defs><style>.cls-1{fill:#0173ae;}.cls-2{fill:#98bbd6;}</style></defs><title>X</title><path class="cls-1" d="M91,88.38,63.61,46.14V16.61A6.06,6.06,0,0,0,63.55,4.5H36.45a6.06,6.06,0,0,0-.06,12.11V46.14L9,88.38a4.61,4.61,0,0,0,3.87,7.12h74.3A4.61,4.61,0,0,0,91,88.38ZM21.35,86.27,44.87,50a4.58,4.58,0,0,0,.75-2.51V16.61h8.76v30.9A4.58,4.58,0,0,0,55.13,50L78.65,86.27Zm0,0"/><path class="cls-2" d="M29.84,81.76H70.16L60.29,66.54H39.71Zm0,0"/></svg>